# xmcd CD database file
#
# Track frame offsets:
#	150
#	31285
#	61480
#	86417
#	121988
#	145736
#	173031
#	191105
#	225197
#
# Disc length: 3380 seconds
#
# Revision: 0
# Processed by: cddbd v1.5.1PL0 Copyright (c) Steve Scherf et al.
# Submitted via: CDex 1.51
#
DISCID=6d0d3209
DTITLE=McNeese State University Jazz Ensemble - October 14th Concert
DYEAR=2004
DGENRE=Jazz
TTITLE0=Jazz Combo Song 1
TTITLE1=Jazz Combo Song 2
TTITLE2=Jazz Combo Song 3
TTITLE3=Good News
TTITLE4=Maiden Voyage
TTITLE5=No Time Like the Present
TTITLE6=Your Sister's Samba
TTITLE7=Places Ft. Bob Patin
TTITLE8=Home Again
EXTD=YEAR: 2004
EXTT0=
EXTT1=
EXTT2=
EXTT3=
EXTT4=
EXTT5=
EXTT6=
EXTT7=
EXTT8=
PLAYORDER=
